<svg width="613" height="613" viewBox="0 0 613 613" fill="none" xmlns="http://www.w3.org/2000/svg">
<g clip-path="url(#clip0_1_3)">
<mask id="mask0_1_3" style="mask-type:alpha" maskUnits="userSpaceOnUse" x="0" y="0" width="612" height="612">
<circle cx="306" cy="306" r="306" fill="white"/>
</mask>
<g mask="url(#mask0_1_3)">
<rect width="612" height="612" fill="#FFA842"/>
</g>
<g clip-path="url(#clip1_1_3)">
<g filter="url(#filter0_f_1_3)">
<path d="M106.536 152.236C111.621 133.256 126.446 118.431 145.426 113.345L349.712 58.6069C368.692 53.5213 388.943 58.9476 402.837 72.842L552.384 222.389C566.279 236.283 571.705 256.535 566.62 275.515L511.881 479.8C506.796 498.78 491.971 513.605 472.991 518.691L268.706 573.429C249.726 578.515 229.474 573.088 215.58 559.194L66.0326 409.647C52.1382 395.752 46.7119 375.501 51.7975 356.521L106.536 152.236Z" fill="black" fill-opacity="0.25"/>
</g>
<path d="M122.372 157.465C126.995 140.211 140.473 126.733 157.727 122.11L343.441 72.3481C360.696 67.7247 379.106 72.6578 391.737 85.289L527.689 221.241C540.32 233.872 545.253 252.283 540.63 269.537L490.868 455.251C486.245 472.505 472.768 485.983 455.513 490.606L269.799 540.368C252.545 544.991 234.134 540.058 221.503 527.427L85.5511 391.475C72.9199 378.844 67.9868 360.434 72.6102 343.179L122.372 157.465Z" fill="white"/>
<path d="M238.645 521.893L236.386 530.323L234.633 529.853L236.891 521.424L238.645 521.893ZM240.614 531.589C239.975 531.417 239.458 531.133 239.065 530.737C238.674 530.338 238.418 529.861 238.297 529.304C238.176 528.746 238.202 528.142 238.376 527.495C238.551 526.842 238.83 526.305 239.213 525.884C239.597 525.46 240.058 525.175 240.594 525.027C241.134 524.878 241.724 524.889 242.363 525.06C243.003 525.232 243.518 525.517 243.908 525.915C244.301 526.312 244.559 526.79 244.68 527.349C244.801 527.905 244.774 528.509 244.599 529.162C244.426 529.81 244.147 530.346 243.763 530.769C243.38 531.19 242.918 531.475 242.378 531.624C241.841 531.772 241.254 531.76 240.614 531.589ZM240.986 530.232C241.277 530.31 241.542 530.293 241.781 530.181C242.021 530.066 242.229 529.877 242.405 529.615C242.583 529.355 242.722 529.04 242.82 528.672C242.919 528.305 242.956 527.963 242.932 527.648C242.91 527.333 242.824 527.066 242.674 526.847C242.524 526.627 242.304 526.478 242.013 526.4C241.72 526.322 241.45 526.339 241.205 526.453C240.963 526.567 240.752 526.755 240.573 527.016C240.397 527.278 240.26 527.592 240.161 527.96C240.063 528.328 240.024 528.669 240.046 528.983C240.07 529.299 240.159 529.567 240.312 529.787C240.468 530.005 240.693 530.154 240.986 530.232ZM244.899 532.604L246.593 526.282L248.347 526.752L246.653 533.074L244.899 532.604ZM247.693 525.703C247.432 525.633 247.231 525.487 247.091 525.264C246.954 525.039 246.919 524.804 246.984 524.56C247.049 524.319 247.196 524.136 247.426 524.013C247.66 523.887 247.907 523.859 248.168 523.929C248.429 523.999 248.627 524.146 248.764 524.371C248.904 524.594 248.942 524.826 248.878 525.068C248.812 525.312 248.663 525.497 248.429 525.622C248.199 525.746 247.953 525.773 247.693 525.703ZM248.057 533.451L249.751 527.128L251.423 527.576L251.124 528.691L251.198 528.711C251.429 528.376 251.727 528.143 252.091 528.011C252.456 527.879 252.852 527.871 253.28 527.986C253.714 528.102 254.054 528.309 254.301 528.607C254.548 528.903 254.673 529.248 254.676 529.643L254.742 529.661C254.968 529.333 255.279 529.106 255.674 528.98C256.073 528.852 256.505 528.85 256.969 528.974C257.559 529.132 257.987 529.448 258.254 529.923C258.524 530.395 258.568 530.974 258.384 531.66L257.245 535.912L255.495 535.444L256.542 531.537C256.636 531.186 256.613 530.898 256.474 530.672C256.334 530.446 256.125 530.296 255.845 530.221C255.526 530.136 255.251 530.171 255.018 530.326C254.786 530.479 254.626 530.72 254.538 531.049L253.503 534.91L251.803 534.454L252.86 530.511C252.943 530.201 252.92 529.93 252.791 529.698C252.664 529.467 252.457 529.313 252.169 529.236C251.974 529.184 251.785 529.186 251.602 529.243C251.423 529.298 251.264 529.401 251.127 529.553C250.99 529.701 250.89 529.892 250.828 530.125L249.811 533.92L248.057 533.451Z" fill="#121212"/>
</g>
<g filter="url(#filter1_f_1_3)">
<path d="M216.5 200.175C219.903 198.21 224.097 198.21 227.5 200.175L264.131 221.325C267.535 223.29 269.631 226.921 269.631 230.851V273.149C269.631 277.079 267.535 280.71 264.131 282.675L227.5 303.825C224.097 305.79 219.903 305.79 216.5 303.825L179.869 282.675C176.465 280.71 174.369 277.079 174.369 273.149V230.851C174.369 226.921 176.465 223.29 179.869 221.325L216.5 200.175Z" fill="black" fill-opacity="0.25"/>
</g>
<path d="M217 203.887C220.094 202.1 223.906 202.1 227 203.887L260.301 223.113C263.395 224.9 265.301 228.201 265.301 231.774V270.226C265.301 273.799 263.395 277.1 260.301 278.887L227 298.113C223.906 299.9 220.094 299.9 217 298.113L183.699 278.887C180.605 277.1 178.699 273.799 178.699 270.227V231.774C178.699 228.201 180.605 224.9 183.699 223.113L217 203.887Z" fill="#121212"/>
<circle cx="201.233" cy="230.233" r="10" fill="white"/>
<g filter="url(#filter2_f_1_3)">
<path d="M386.833 201.505C390.237 199.54 394.43 199.54 397.833 201.505L434.465 222.655C437.868 224.62 439.965 228.251 439.965 232.181V274.479C439.965 278.409 437.868 282.04 434.465 284.005L397.833 305.155C394.43 307.12 390.237 307.12 386.833 305.155L350.202 284.005C346.799 282.04 344.702 278.409 344.702 274.479V232.181C344.702 228.251 346.799 224.62 350.202 222.655L386.833 201.505Z" fill="black" fill-opacity="0.25"/>
</g>
<path d="M387.333 204.22C390.427 202.434 394.239 202.434 397.333 204.22L430.635 223.447C433.729 225.233 435.635 228.534 435.635 232.107V270.56C435.635 274.132 433.729 277.434 430.635 279.22L397.333 298.447C394.239 300.233 390.427 300.233 387.333 298.447L354.032 279.22C350.938 277.434 349.032 274.132 349.032 270.56V232.107C349.032 228.534 350.938 225.233 354.032 223.447L387.333 204.22Z" fill="#121212"/>
<circle cx="371.567" cy="230.567" r="10" fill="white"/>
<g filter="url(#filter3_f_1_3)">
<path d="M378.665 359.498L226.688 372.794C216.775 373.662 209.699 383.293 214.546 391.984C246.139 448.629 357.969 429.885 392.185 378.002C398.305 368.723 389.739 358.529 378.665 359.498Z" fill="black" fill-opacity="0.25"/>
<path d="M378.665 359.498L226.688 372.794C216.775 373.662 209.699 383.293 214.546 391.984C246.139 448.629 357.969 429.885 392.185 378.002C398.305 368.723 389.739 358.529 378.665 359.498Z" stroke="black" stroke-opacity="0.25" stroke-width="1.1"/>
</g>
<path d="M372.156 359.774L233.995 371.862C224.983 372.65 218.551 381.406 222.957 389.306C251.678 440.802 353.342 423.762 384.447 376.596C390.011 368.16 382.223 358.893 372.156 359.774Z" fill="#121212" stroke="#121212"/>
</g>
<defs>
<filter id="filter0_f_1_3" x="19.9222" y="26.7316" width="578.573" height="578.573" filterUnits="userSpaceOnUse" color-interpolation-filters="sRGB">
<feFlood flood-opacity="0" result="BackgroundImageFix"/>
<feBlend mode="normal" in="SourceGraphic" in2="BackgroundImageFix" result="shape"/>
<feGaussianBlur stdDeviation="15" result="effect1_foregroundBlur_1_3"/>
</filter>
<filter id="filter1_f_1_3" x="164.369" y="188.702" width="115.263" height="126.597" filterUnits="userSpaceOnUse" color-interpolation-filters="sRGB">
<feFlood flood-opacity="0" result="BackgroundImageFix"/>
<feBlend mode="normal" in="SourceGraphic" in2="BackgroundImageFix" result="shape"/>
<feGaussianBlur stdDeviation="5" result="effect1_foregroundBlur_1_3"/>
</filter>
<filter id="filter2_f_1_3" x="334.702" y="190.032" width="115.263" height="126.597" filterUnits="userSpaceOnUse" color-interpolation-filters="sRGB">
<feFlood flood-opacity="0" result="BackgroundImageFix"/>
<feBlend mode="normal" in="SourceGraphic" in2="BackgroundImageFix" result="shape"/>
<feGaussianBlur stdDeviation="5" result="effect1_foregroundBlur_1_3"/>
</filter>
<filter id="filter3_f_1_3" x="197.431" y="343.884" width="212.344" height="98.2641" filterUnits="userSpaceOnUse" color-interpolation-filters="sRGB">
<feFlood flood-opacity="0" result="BackgroundImageFix"/>
<feBlend mode="normal" in="SourceGraphic" in2="BackgroundImageFix" result="shape"/>
<feGaussianBlur stdDeviation="7.5" result="effect1_foregroundBlur_1_3"/>
</filter>
<clipPath id="clip0_1_3">
<rect width="612.372" height="612.372" fill="white"/>
</clipPath>
<clipPath id="clip1_1_3">
<rect width="612" height="612" fill="white" transform="translate(-68.7719 89.6253) rotate(-15)"/>
</clipPath>
</defs>
</svg>
